<?xml version="1.0" encoding="UTF-8"?>
<svg xmlns="http://www.w3.org/2000/svg" xmlns:xlink="http://www.w3.org/1999/xlink" width="21px" height="24px" viewBox="0 0 21 23" version="1.1">
<g id="surface1">
<path style=" stroke:none;fill-rule:nonzero;fill:rgb(0%,26.666667%,50.980392%);fill-opacity:1;" d="M 20.984375 6.761719 C 20.992188 6.40625 20.902344 6.054688 20.726562 5.742188 C 20.546875 5.4375 20.285156 5.1875 19.96875 5.019531 C 17.175781 3.449219 14.382812 1.878906 11.589844 0.3125 C 10.835938 -0.113281 10.105469 -0.0976562 9.359375 0.332031 C 8.246094 0.96875 2.679688 4.082031 1.023438 5.019531 C 0.339844 5.402344 0.0078125 5.996094 0.0078125 6.761719 L 0.0078125 16.238281 C 0 16.589844 0.0859375 16.933594 0.253906 17.242188 C 0.4375 17.554688 0.703125 17.808594 1.027344 17.980469 C 2.683594 18.921875 8.25 22.03125 9.363281 22.667969 C 10.109375 23.101562 10.839844 23.113281 11.59375 22.691406 C 14.386719 21.117188 17.179688 19.550781 19.972656 17.980469 C 20.296875 17.808594 20.5625 17.550781 20.746094 17.242188 C 20.914062 16.933594 21 16.585938 20.992188 16.238281 L 20.992188 6.761719 Z M 20.984375 6.761719 "/>
<path style=" stroke:none;fill-rule:nonzero;fill:rgb(0%,34.901961%,61.176471%);fill-opacity:1;" d="M 20.984375 16.238281 C 20.992188 16.589844 20.910156 16.933594 20.738281 17.242188 C 20.699219 17.316406 20.652344 17.386719 20.601562 17.453125 L 10.496094 11.5 L 19.96875 5.019531 C 20.285156 5.1875 20.546875 5.4375 20.726562 5.742188 C 20.902344 6.054688 20.992188 6.40625 20.984375 6.761719 C 20.984375 9.921875 20.984375 16.238281 20.984375 16.238281 Z M 20.984375 16.238281 "/>
<path style=" stroke:none;fill-rule:nonzero;fill:rgb(39.607843%,60.392157%,82.352941%);fill-opacity:1;" d="M 20.726562 5.742188 L 0.25 17.242188 C 0.0820312 16.933594 0 16.589844 0.0078125 16.238281 L 0.0078125 6.761719 C 0.0078125 5.996094 0.339844 5.402344 1.023438 5.019531 C 2.679688 4.082031 8.246094 0.96875 9.359375 0.332031 C 10.105469 -0.0976562 10.835938 -0.113281 11.589844 0.308594 C 14.378906 1.882812 17.175781 3.453125 19.96875 5.019531 C 20.285156 5.1875 20.546875 5.4375 20.726562 5.742188 Z M 20.726562 5.742188 "/>
<path style=" stroke:none;fill-rule:nonzero;fill:rgb(100%,100%,100%);fill-opacity:1;" d="M 10.902344 15.328125 C 9.496094 15.332031 8.203125 14.585938 7.523438 13.390625 C 7.492188 13.332031 7.457031 13.269531 7.429688 13.207031 C 6.578125 11.496094 7.175781 9.433594 8.820312 8.410156 C 10.460938 7.382812 12.632812 7.71875 13.871094 9.1875 C 13.925781 9.246094 13.96875 9.3125 14.019531 9.375 C 14.042969 9.40625 14.066406 9.4375 14.089844 9.46875 L 17.472656 7.570312 C 17.390625 7.441406 17.304688 7.316406 17.210938 7.195312 C 17.164062 7.128906 17.117188 7.066406 17.070312 7.007812 C 14.632812 3.921875 10.179688 3.160156 6.8125 5.257812 C 3.441406 7.355469 2.277344 11.613281 4.128906 15.066406 C 4.160156 15.125 4.195312 15.183594 4.226562 15.246094 C 5.558594 17.535156 8.027344 18.980469 10.726562 19.050781 C 13.429688 19.121094 15.972656 17.804688 17.429688 15.585938 L 14.121094 13.636719 C 13.410156 14.691406 12.199219 15.328125 10.902344 15.328125 Z M 10.902344 15.328125 "/>
</g>
</svg>
