<?xml version="1.0" encoding="UTF-8"?>
<svg xmlns="http://www.w3.org/2000/svg" xmlns:xlink="http://www.w3.org/1999/xlink" width="24px" height="24px" viewBox="0 0 24 24" version="1.1">
<g id="surface1">
<path style=" stroke:none;fill-rule:nonzero;fill:rgb(94.117647%,31.764706%,20%);fill-opacity:1;" d="M 23.546875 10.929688 L 13.070312 0.453125 C 12.464844 -0.152344 11.488281 -0.152344 10.882812 0.453125 L 8.707031 2.628906 L 11.46875 5.386719 C 12.109375 5.171875 12.84375 5.316406 13.355469 5.828125 C 13.871094 6.34375 14.015625 7.085938 13.792969 7.726562 L 16.453125 10.386719 C 17.097656 10.167969 17.839844 10.308594 18.351562 10.824219 C 19.070312 11.542969 19.070312 12.707031 18.351562 13.425781 C 17.632812 14.144531 16.46875 14.144531 15.75 13.425781 C 15.210938 12.886719 15.078125 12.089844 15.351562 11.425781 L 12.871094 8.945312 L 12.871094 15.472656 C 13.046875 15.558594 13.210938 15.675781 13.355469 15.820312 C 14.074219 16.539062 14.074219 17.703125 13.355469 18.421875 C 12.636719 19.140625 11.472656 19.140625 10.753906 18.421875 C 10.039062 17.703125 10.039062 16.539062 10.753906 15.820312 C 10.933594 15.644531 11.140625 15.507812 11.359375 15.417969 L 11.359375 8.832031 C 11.140625 8.742188 10.933594 8.609375 10.753906 8.429688 C 10.210938 7.886719 10.082031 7.085938 10.359375 6.417969 L 7.640625 3.695312 L 0.453125 10.882812 C -0.148438 11.484375 -0.148438 12.464844 0.453125 13.066406 L 10.933594 23.546875 C 11.535156 24.148438 12.515625 24.148438 13.117188 23.546875 L 23.546875 13.117188 C 24.152344 12.511719 24.152344 11.535156 23.546875 10.929688 Z M 23.546875 10.929688 "/>
</g>
</svg>
