<?xml version="1.0" encoding="UTF-8"?>
<svg xmlns="http://www.w3.org/2000/svg" xmlns:xlink="http://www.w3.org/1999/xlink" width="24px" height="30px" viewBox="0 0 24 29" version="1.1">
<g id="surface1">
<path style=" stroke:none;fill-rule:nonzero;fill:rgb(0%,0%,0%);fill-opacity:1;" d="M 6.71875 8.566406 C 8.210938 7.8125 9.230469 6.289062 9.230469 4.53125 C 9.230469 2.027344 7.164062 0 4.617188 0 C 2.066406 0 0 2.027344 0 4.53125 C 0 6.390625 1.140625 7.984375 2.769531 8.683594 L 2.769531 20.316406 C 1.140625 21.015625 0 22.609375 0 24.46875 C 0 26.972656 2.066406 29 4.617188 29 C 7.164062 29 9.230469 26.972656 9.230469 24.46875 C 9.230469 22.609375 8.089844 21.015625 6.460938 20.316406 L 6.460938 13.4375 L 10.3125 17.21875 L 15.152344 17.21875 C 15.867188 18.820312 17.492188 19.9375 19.382812 19.9375 C 21.933594 19.9375 24 17.910156 24 15.40625 C 24 12.902344 21.933594 10.875 19.382812 10.875 C 17.492188 10.875 15.867188 11.992188 15.152344 13.59375 L 11.839844 13.59375 Z M 6.71875 8.566406 "/>
</g>
</svg>
