<?xml version="1.0" encoding="UTF-8"?>
<svg xmlns="http://www.w3.org/2000/svg" xmlns:xlink="http://www.w3.org/1999/xlink" width="18px" height="24px" viewBox="0 0 18 24" version="1.1">
<g id="surface1">
<path style=" stroke:none;fill-rule:nonzero;fill:rgb(30.588235%,47.058824%,58.823529%);fill-opacity:1;" d="M 5.875 18.554688 C 5.875 18.554688 4.953125 19.117188 6.515625 19.277344 C 8.398438 19.515625 9.402344 19.476562 11.484375 19.078125 C 11.902344 19.332031 12.34375 19.546875 12.804688 19.71875 C 8.117188 21.722656 2.1875 19.597656 5.875 18.554688 Z M 5.273438 15.949219 C 5.273438 15.949219 4.273438 16.710938 5.835938 16.871094 C 7.878906 17.074219 9.480469 17.113281 12.246094 16.550781 C 12.515625 16.824219 12.847656 17.03125 13.210938 17.152344 C 7.558594 18.835938 1.226562 17.3125 5.273438 15.949219 Z M 16.335938 20.519531 C 16.335938 20.519531 17.015625 21.078125 15.574219 21.519531 C 12.886719 22.320312 4.3125 22.5625 1.90625 21.519531 C 1.066406 21.160156 2.667969 20.636719 3.183594 20.558594 C 3.703125 20.4375 3.984375 20.4375 3.984375 20.4375 C 3.0625 19.796875 -2.144531 21.761719 1.339844 22.320312 C 10.917969 23.882812 18.8125 21.640625 16.328125 20.519531 Z M 6.308594 13.226562 C 6.308594 13.226562 1.941406 14.265625 4.746094 14.628906 C 5.945312 14.789062 8.3125 14.746094 10.515625 14.585938 C 12.316406 14.425781 14.121094 14.109375 14.121094 14.109375 C 14.121094 14.109375 13.480469 14.386719 13.039062 14.667969 C 8.59375 15.832031 0.0546875 15.308594 2.5 14.109375 C 4.585938 13.105469 6.308594 13.226562 6.308594 13.226562 Z M 14.121094 17.59375 C 18.609375 15.269531 16.527344 13.023438 15.085938 13.304688 C 14.722656 13.386719 14.5625 13.464844 14.5625 13.464844 C 14.5625 13.464844 14.683594 13.226562 14.964844 13.144531 C 17.808594 12.144531 20.054688 16.152344 14.039062 17.710938 C 14.039062 17.710938 14.082031 17.671875 14.121094 17.59375 Z M 6.75 23.925781 C 11.078125 24.203125 17.691406 23.765625 17.851562 21.71875 C 17.851562 21.71875 17.53125 22.523438 14.285156 23.121094 C 10.597656 23.804688 6.027344 23.722656 3.34375 23.28125 C 3.34375 23.28125 3.90625 23.761719 6.75 23.921875 Z M 6.75 23.925781 "/>
<path style=" stroke:none;fill-rule:nonzero;fill:rgb(96.078431%,50.980392%,9.803922%);fill-opacity:1;" d="M 11.40625 0 C 11.40625 0 13.890625 2.523438 9.039062 6.332031 C 5.152344 9.417969 8.160156 11.179688 9.039062 13.183594 C 6.757812 11.140625 5.113281 9.335938 6.234375 7.65625 C 7.878906 5.167969 12.40625 3.976562 11.40625 0 Z M 10.128906 11.503906 C 11.292969 12.824219 9.808594 14.027344 9.808594 14.027344 C 9.808594 14.027344 12.773438 12.503906 11.410156 10.621094 C 10.171875 8.816406 9.207031 7.933594 14.417969 4.929688 C 14.417969 4.929688 6.203125 6.972656 10.128906 11.503906 Z M 10.128906 11.503906 "/>
</g>
</svg>
