<svg xmlns="http://www.w3.org/2000/svg" xmlns:xlink="http://www.w3.org/1999/xlink" version="1.1" viewBox="3.1 0 17.8 24">
<g id="surface1">
<path style=" stroke:none;fill-rule:nonzero;fill:rgb(0%,0%,0%);fill-opacity:1;" d="M 11.882812 4.445312 C 10.773438 5.226562 9.515625 6.109375 8.84375 7.574219 C 7.671875 10.125 11.234375 12.910156 11.386719 13.027344 C 11.421875 13.054688 11.464844 13.066406 11.507812 13.066406 C 11.550781 13.066406 11.597656 13.050781 11.632812 13.019531 C 11.703125 12.960938 11.726562 12.859375 11.683594 12.777344 C 11.667969 12.753906 10.390625 10.269531 10.4375 8.488281 C 10.453125 7.867188 11.324219 7.164062 12.242188 6.417969 C 13.085938 5.734375 14.039062 4.960938 14.597656 4.054688 C 15.824219 2.0625 14.460938 0.101562 14.449219 0.0820312 C 14.394531 0.0078125 14.292969 -0.0195312 14.207031 0.015625 C 14.125 0.0546875 14.078125 0.148438 14.097656 0.238281 C 14.097656 0.25 14.363281 1.546875 13.625 2.882812 C 13.320312 3.433594 12.65625 3.902344 11.882812 4.445312 Z M 11.882812 4.445312 "/>
<path style=" stroke:none;fill-rule:nonzero;fill:rgb(0%,0%,0%);fill-opacity:1;" d="M 16.554688 5.324219 C 16.632812 5.265625 16.65625 5.160156 16.605469 5.074219 C 16.558594 4.988281 16.457031 4.949219 16.363281 4.984375 C 16.175781 5.054688 11.75 6.761719 11.75 8.824219 C 11.75 10.242188 12.359375 10.992188 12.800781 11.542969 C 12.976562 11.757812 13.125 11.941406 13.175781 12.101562 C 13.3125 12.558594 12.984375 13.382812 12.84375 13.664062 C 12.804688 13.742188 12.824219 13.839844 12.894531 13.898438 C 12.929688 13.929688 12.976562 13.945312 13.023438 13.945312 C 13.0625 13.945312 13.101562 13.933594 13.132812 13.910156 C 13.210938 13.859375 14.992188 12.597656 14.671875 11.078125 C 14.554688 10.5 14.269531 10.078125 14.019531 9.707031 C 13.632812 9.128906 13.351562 8.714844 13.777344 7.945312 C 14.277344 7.046875 16.53125 5.34375 16.554688 5.324219 Z M 16.554688 5.324219 "/>
<path style=" stroke:none;fill-rule:nonzero;fill:rgb(0%,0%,0%);fill-opacity:1;" d="M 5.035156 13.980469 C 4.960938 14.207031 4.996094 14.433594 5.140625 14.632812 C 5.617188 15.296875 7.316406 15.664062 9.921875 15.664062 C 10.277344 15.664062 10.648438 15.65625 11.03125 15.644531 C 15.195312 15.496094 16.742188 14.195312 16.804688 14.140625 C 16.875 14.082031 16.894531 13.980469 16.851562 13.898438 C 16.808594 13.820312 16.714844 13.777344 16.625 13.804688 C 15.160156 14.203125 12.417969 14.34375 10.519531 14.34375 C 8.390625 14.34375 7.308594 14.191406 7.042969 14.078125 C 7.179688 13.890625 8.019531 13.558594 9.058594 13.355469 C 9.15625 13.335938 9.226562 13.242188 9.214844 13.140625 C 9.207031 13.042969 9.121094 12.964844 9.019531 12.964844 C 8.410156 12.964844 5.355469 13.015625 5.035156 13.980469 Z M 5.035156 13.980469 "/>
<path style=" stroke:none;fill-rule:nonzero;fill:rgb(0%,0%,0%);fill-opacity:1;" d="M 18.976562 12.644531 C 18.117188 12.644531 17.300781 13.074219 17.265625 13.09375 C 17.1875 13.132812 17.148438 13.226562 17.167969 13.3125 C 17.191406 13.402344 17.269531 13.460938 17.359375 13.460938 C 17.378906 13.460938 19.191406 13.476562 19.355469 14.515625 C 19.503906 15.410156 17.640625 16.859375 16.910156 17.339844 C 16.832031 17.394531 16.800781 17.492188 16.835938 17.582031 C 16.867188 17.65625 16.941406 17.703125 17.019531 17.703125 C 17.03125 17.703125 17.046875 17.699219 17.058594 17.695312 C 17.234375 17.660156 21.296875 16.765625 20.867188 14.398438 C 20.605469 12.949219 19.695312 12.644531 18.976562 12.644531 Z M 18.976562 12.644531 "/>
<path style=" stroke:none;fill-rule:nonzero;fill:rgb(0%,0%,0%);fill-opacity:1;" d="M 16.1875 17.050781 C 16.203125 16.976562 16.171875 16.898438 16.109375 16.855469 L 15.132812 16.171875 C 15.085938 16.136719 15.027344 16.128906 14.96875 16.140625 C 14.960938 16.144531 13.941406 16.414062 12.460938 16.578125 C 11.875 16.644531 11.214844 16.675781 10.558594 16.675781 C 9.078125 16.675781 8.113281 16.503906 7.972656 16.375 C 7.953125 16.339844 7.957031 16.324219 7.960938 16.316406 C 7.988281 16.242188 8.125 16.160156 8.210938 16.125 C 8.308594 16.089844 8.363281 15.984375 8.332031 15.882812 C 8.300781 15.785156 8.199219 15.726562 8.097656 15.75 C 7.121094 15.984375 6.644531 16.316406 6.675781 16.730469 C 6.738281 17.464844 8.441406 17.84375 9.882812 17.941406 C 10.089844 17.957031 10.3125 17.964844 10.546875 17.964844 C 12.941406 17.964844 16.011719 17.214844 16.042969 17.207031 C 16.117188 17.1875 16.175781 17.125 16.1875 17.050781 Z M 16.1875 17.050781 "/>
<path style=" stroke:none;fill-rule:nonzero;fill:rgb(0%,0%,0%);fill-opacity:1;" d="M 8.839844 18.628906 C 8.914062 18.582031 8.945312 18.488281 8.921875 18.40625 C 8.894531 18.320312 8.816406 18.265625 8.726562 18.269531 C 8.597656 18.269531 7.445312 18.324219 7.367188 19.054688 C 7.339844 19.273438 7.402344 19.476562 7.550781 19.652344 C 7.964844 20.140625 9.082031 20.429688 10.960938 20.539062 C 11.183594 20.554688 11.410156 20.558594 11.632812 20.558594 C 14.023438 20.558594 15.636719 19.8125 15.703125 19.78125 C 15.769531 19.75 15.8125 19.683594 15.816406 19.613281 C 15.820312 19.539062 15.78125 19.472656 15.722656 19.433594 L 14.488281 18.683594 C 14.445312 18.65625 14.394531 18.648438 14.347656 18.65625 C 14.339844 18.660156 13.558594 18.820312 12.378906 18.980469 C 12.152344 19.011719 11.875 19.027344 11.546875 19.027344 C 10.367188 19.027344 9.054688 18.835938 8.804688 18.707031 C 8.800781 18.683594 8.804688 18.65625 8.839844 18.628906 Z M 8.839844 18.628906 "/>
<path style=" stroke:none;fill-rule:nonzero;fill:rgb(0%,0%,0%);fill-opacity:1;" d="M 10.519531 22.820312 C 15.996094 22.816406 18.9375 21.84375 19.503906 21.230469 C 19.703125 21.011719 19.726562 20.808594 19.707031 20.671875 C 19.664062 20.34375 19.367188 20.140625 19.332031 20.117188 C 19.25 20.066406 19.136719 20.078125 19.074219 20.152344 C 19.011719 20.226562 19.007812 20.335938 19.074219 20.410156 C 19.109375 20.453125 19.128906 20.527344 19.027344 20.628906 C 18.800781 20.839844 16.515625 21.484375 12.714844 21.675781 C 12.195312 21.703125 11.648438 21.714844 11.089844 21.71875 C 7.6875 21.71875 5.195312 21.25 4.867188 20.980469 C 4.996094 20.796875 5.875 20.507812 6.8125 20.34375 C 6.917969 20.328125 6.988281 20.226562 6.972656 20.121094 C 6.957031 20.015625 6.859375 19.941406 6.753906 19.957031 C 6.726562 19.960938 6.636719 19.964844 6.53125 19.972656 C 4.988281 20.066406 3.199219 20.277344 3.105469 21.074219 C 3.078125 21.316406 3.148438 21.535156 3.320312 21.726562 C 3.738281 22.195312 4.9375 22.820312 10.519531 22.820312 Z M 10.519531 22.820312 "/>
<path style=" stroke:none;fill-rule:nonzero;fill:rgb(0%,0%,0%);fill-opacity:1;" d="M 20.578125 21.402344 C 20.5 21.367188 20.410156 21.382812 20.351562 21.445312 C 20.34375 21.457031 19.519531 22.316406 17.042969 22.820312 C 16.097656 23.011719 14.316406 23.109375 11.753906 23.109375 C 9.1875 23.109375 6.746094 23.007812 6.722656 23.007812 C 6.621094 23 6.535156 23.074219 6.519531 23.175781 C 6.507812 23.277344 6.570312 23.371094 6.667969 23.394531 C 6.695312 23.402344 9.253906 24 12.753906 24 C 14.429688 24 16.0625 23.863281 17.605469 23.59375 C 20.484375 23.089844 20.683594 21.664062 20.691406 21.605469 C 20.703125 21.519531 20.65625 21.4375 20.578125 21.402344 Z M 20.578125 21.402344 "/>
</g>
</svg>