<?xml version="1.0" encoding="UTF-8"?>
<svg xmlns="http://www.w3.org/2000/svg" xmlns:xlink="http://www.w3.org/1999/xlink" width="24px" height="24px" viewBox="0 0 24 23" version="1.1">
<defs>
<linearGradient id="linear0" gradientUnits="userSpaceOnUse" x1="0.12959" y1="0.12039" x2="0.79639" y2="0.78201" gradientTransform="matrix(17.789062,0,0,17.160156,0,0)">
<stop offset="0" style="stop-color:rgb(21.960784%,49.411765%,72.156863%);stop-opacity:1;"/>
<stop offset="1" style="stop-color:rgb(21.176471%,41.176471%,58.039216%);stop-opacity:1;"/>
</linearGradient>
<linearGradient id="linear1" gradientUnits="userSpaceOnUse" x1="0.19128" y1="0.20579" x2="0.90742" y2="0.88429" gradientTransform="matrix(17.789062,0,0,17.164062,6.210938,5.808594)">
<stop offset="0" style="stop-color:rgb(100%,87.843137%,32.156863%);stop-opacity:1;"/>
<stop offset="1" style="stop-color:rgb(100%,76.470588%,19.215686%);stop-opacity:1;"/>
</linearGradient>
</defs>
<g id="surface1">
<path style=" stroke:none;fill-rule:nonzero;fill:url(#linear0);" d="M 11.914062 0 C 5.820312 0 6.203125 2.542969 6.203125 2.542969 L 6.207031 5.175781 L 12.023438 5.175781 L 12.023438 5.964844 L 3.898438 5.964844 C 3.898438 5.964844 0 5.542969 0 11.457031 C 0 17.371094 3.402344 17.160156 3.402344 17.160156 L 5.433594 17.160156 L 5.433594 14.417969 C 5.433594 14.417969 5.324219 11.140625 8.78125 11.140625 L 14.550781 11.140625 C 14.550781 11.140625 17.789062 11.191406 17.789062 8.128906 L 17.789062 3.066406 C 17.789062 3.066406 18.28125 0 11.914062 0 Z M 8.707031 1.769531 C 8.984375 1.769531 9.25 1.878906 9.449219 2.066406 C 9.644531 2.253906 9.753906 2.511719 9.753906 2.777344 C 9.753906 3.042969 9.644531 3.300781 9.449219 3.488281 C 9.25 3.679688 8.984375 3.785156 8.707031 3.785156 C 8.429688 3.785156 8.164062 3.679688 7.96875 3.488281 C 7.773438 3.300781 7.660156 3.042969 7.664062 2.777344 C 7.660156 2.511719 7.773438 2.253906 7.96875 2.066406 C 8.164062 1.878906 8.429688 1.769531 8.707031 1.769531 Z M 8.707031 1.769531 "/>
<path style=" stroke:none;fill-rule:nonzero;fill:url(#linear1);" d="M 12.085938 22.972656 C 18.179688 22.972656 17.800781 20.429688 17.800781 20.429688 L 17.792969 17.796875 L 11.976562 17.796875 L 11.976562 17.003906 L 20.101562 17.003906 C 20.101562 17.003906 24 17.429688 24 11.515625 C 24 5.601562 20.597656 5.808594 20.597656 5.808594 L 18.566406 5.808594 L 18.566406 8.554688 C 18.566406 8.554688 18.675781 11.828125 15.21875 11.828125 L 9.453125 11.828125 C 9.453125 11.828125 6.210938 11.777344 6.210938 14.839844 L 6.210938 19.90625 C 6.210938 19.90625 5.71875 22.972656 12.085938 22.972656 Z M 15.292969 21.199219 C 15.015625 21.199219 14.75 21.09375 14.554688 20.90625 C 14.355469 20.714844 14.246094 20.460938 14.246094 20.195312 C 14.246094 19.925781 14.355469 19.671875 14.554688 19.480469 C 14.75 19.292969 15.015625 19.1875 15.292969 19.1875 C 15.570312 19.1875 15.835938 19.292969 16.03125 19.480469 C 16.230469 19.671875 16.339844 19.925781 16.339844 20.195312 C 16.339844 20.460938 16.230469 20.714844 16.03125 20.90625 C 15.835938 21.09375 15.570312 21.199219 15.292969 21.199219 Z M 15.292969 21.199219 "/>
</g>
</svg>
