<?xml version="1.0" encoding="UTF-8"?>
<svg xmlns="http://www.w3.org/2000/svg" xmlns:xlink="http://www.w3.org/1999/xlink" width="24px" height="24px" viewBox="0 0 24 24" version="1.1">
<g id="surface1">
<path style=" stroke:none;fill-rule:nonzero;fill:rgb(0%,0%,0%);fill-opacity:1;" d="M 23.558594 9.027344 C 23.148438 7.371094 22.367188 6.121094 20.699219 6.121094 L 18.550781 6.121094 L 18.550781 8.664062 C 18.550781 10.632812 16.878906 12.292969 14.972656 12.292969 L 9.25 12.292969 C 7.6875 12.292969 6.390625 13.632812 6.390625 15.203125 L 6.390625 20.65625 C 6.390625 22.210938 7.742188 23.121094 9.25 23.566406 C 11.0625 24.09375 12.804688 24.191406 14.972656 23.566406 C 16.414062 23.148438 17.832031 22.304688 17.832031 20.65625 L 17.832031 18.476562 L 12.117188 18.476562 L 12.117188 17.746094 L 20.699219 17.746094 C 22.367188 17.746094 22.980469 16.585938 23.558594 14.84375 C 24.160156 13.050781 24.132812 11.324219 23.558594 9.027344 Z M 15.332031 19.925781 C 15.925781 19.925781 16.410156 20.414062 16.410156 21.015625 C 16.410156 21.621094 15.925781 22.109375 15.332031 22.109375 C 14.742188 22.109375 14.253906 21.613281 14.253906 21.015625 C 14.261719 20.410156 14.742188 19.925781 15.332031 19.925781 Z M 8.988281 11.578125 L 14.710938 11.578125 C 16.300781 11.578125 17.570312 10.265625 17.570312 8.667969 L 17.570312 3.207031 C 17.570312 1.65625 16.265625 0.492188 14.710938 0.230469 C 12.792969 -0.0859375 10.707031 -0.0703125 8.988281 0.234375 C 6.566406 0.664062 6.128906 1.558594 6.128906 3.214844 L 6.128906 5.394531 L 11.855469 5.394531 L 11.855469 6.121094 L 3.980469 6.121094 C 2.3125 6.121094 0.855469 7.125 0.402344 9.027344 C -0.121094 11.207031 -0.144531 12.566406 0.402344 14.84375 C 0.808594 16.535156 1.777344 17.746094 3.445312 17.746094 L 5.410156 17.746094 L 5.410156 15.132812 C 5.410156 13.242188 7.042969 11.578125 8.988281 11.578125 Z M 8.628906 3.9375 C 8.035156 3.9375 7.554688 3.449219 7.554688 2.851562 C 7.558594 2.246094 8.035156 1.757812 8.628906 1.757812 C 9.21875 1.757812 9.707031 2.25 9.707031 2.851562 C 9.707031 3.449219 9.226562 3.9375 8.628906 3.9375 Z M 8.628906 3.9375 "/>
</g>
</svg>
