<?xml version="1.0" encoding="UTF-8"?>
<svg xmlns="http://www.w3.org/2000/svg" xmlns:xlink="http://www.w3.org/1999/xlink" width="31px" height="24px" viewBox="0 0 31 24" version="1.1">
<defs>
<linearGradient id="linear0" gradientUnits="userSpaceOnUse" x1="0" y1="0" x2="1" y2="1" gradientTransform="matrix(31,0,0,20.84375,0,0)">
<stop offset="0" style="stop-color:rgb(79.607843%,80.784314%,81.568627%);stop-opacity:1;"/>
<stop offset="1" style="stop-color:rgb(51.764706%,51.372549%,54.509804%);stop-opacity:1;"/>
</linearGradient>
<linearGradient id="linear1" gradientUnits="userSpaceOnUse" x1="0" y1="0" x2="1" y2="1" gradientTransform="matrix(17.109375,0,0,17.527344,12.773438,6.472656)">
<stop offset="0" style="stop-color:rgb(15.294118%,42.745098%,76.470588%);stop-opacity:1;"/>
<stop offset="1" style="stop-color:rgb(8.627451%,36.078431%,66.666667%);stop-opacity:1;"/>
</linearGradient>
</defs>
<g id="surface1">
<path style=" stroke:none;fill-rule:evenodd;fill:url(#linear0);" d="M 15.5 20.84375 C 6.941406 20.84375 0 16.179688 0 10.421875 C 0 4.667969 6.941406 0 15.5 0 C 24.058594 0 31 4.667969 31 10.421875 C 31 16.179688 24.058594 20.84375 15.5 20.84375 Z M 17.871094 4.074219 C 11.367188 4.074219 6.089844 7.265625 6.089844 11.199219 C 6.089844 15.132812 11.367188 18.324219 17.871094 18.324219 C 24.378906 18.324219 29.179688 16.144531 29.179688 11.199219 C 29.179688 6.257812 24.378906 4.074219 17.871094 4.074219 Z M 17.871094 4.074219 "/>
<path style=" stroke:none;fill-rule:evenodd;fill:url(#linear1);" d="M 23.605469 16.140625 C 23.605469 16.140625 24.542969 16.425781 25.089844 16.703125 C 25.277344 16.800781 25.605469 16.992188 25.839844 17.242188 C 26.074219 17.488281 26.183594 17.738281 26.183594 17.738281 L 29.882812 23.996094 L 23.90625 24 L 21.113281 18.730469 C 21.113281 18.730469 20.539062 17.746094 20.1875 17.457031 C 19.894531 17.21875 19.769531 17.132812 19.480469 17.132812 C 19.277344 17.132812 18.058594 17.132812 18.058594 17.132812 L 18.058594 23.996094 L 12.773438 24 L 12.773438 6.472656 L 23.390625 6.472656 C 23.390625 6.472656 28.226562 6.558594 28.226562 11.179688 C 28.226562 15.796875 23.605469 16.140625 23.605469 16.140625 Z M 21.304688 10.273438 L 18.105469 10.269531 L 18.101562 13.25 L 21.304688 13.25 C 21.304688 13.25 22.789062 13.246094 22.789062 11.734375 C 22.789062 10.191406 21.304688 10.273438 21.304688 10.273438 Z M 21.304688 10.273438 "/>
</g>
</svg>
