<?xml version="1.0" encoding="UTF-8"?>
<svg xmlns="http://www.w3.org/2000/svg" xmlns:xlink="http://www.w3.org/1999/xlink" width="24px" height="18px" viewBox="0 0 24 18" version="1.1">
<g id="surface1">
<path style=" stroke:none;fill-rule:nonzero;fill:rgb(0%,0%,0%);fill-opacity:1;" d="M 12 0 C 5.371094 0 0 3.644531 0 8.144531 C 0 12.246094 4.472656 15.628906 10.285156 16.195312 L 10.285156 18 L 13.714844 18 L 13.714844 16.195312 C 14.847656 16.082031 15.929688 15.867188 16.941406 15.558594 L 18.28125 18 L 22.285156 18 L 19.972656 14.214844 C 22.4375 12.726562 24 10.5625 24 8.144531 C 24 3.644531 18.628906 0 12 0 Z M 13.285156 2.570312 C 18.257812 2.570312 22.285156 5.257812 22.285156 8.570312 C 22.285156 10.398438 21.058594 12.03125 19.128906 13.128906 C 18.933594 12.96875 18.71875 12.835938 18.484375 12.738281 C 20.171875 12.324219 21.429688 10.8125 21.429688 9 C 21.429688 6.871094 19.703125 5.144531 17.570312 5.144531 L 10.285156 5.144531 L 10.285156 14.222656 C 6.792969 13.398438 4.285156 11.183594 4.285156 8.570312 C 4.285156 5.257812 8.316406 2.570312 13.285156 2.570312 Z M 13.714844 7.714844 L 16.714844 7.714844 C 17.425781 7.714844 18 8.289062 18 9 C 18 9.710938 17.425781 10.285156 16.714844 10.285156 L 13.714844 10.285156 Z M 13.714844 12.855469 L 14.683594 12.855469 C 15.160156 12.855469 15.597656 13.117188 15.828125 13.535156 L 16.214844 14.238281 C 15.425781 14.421875 14.585938 14.527344 13.714844 14.554688 Z M 13.714844 12.855469 "/>
</g>
</svg>
