<?xml version="1.0" encoding="UTF-8"?>
<svg xmlns="http://www.w3.org/2000/svg" xmlns:xlink="http://www.w3.org/1999/xlink" width="32px" height="24px" viewBox="0 0 31 24" version="1.1">
<defs>
<linearGradient id="linear0" gradientUnits="userSpaceOnUse" x1="0.37973" y1="0.16999" x2="0.91121" y2="0.76326" gradientTransform="matrix(31,0,0,20.929687,0,0.00390625)">
<stop offset="0" style="stop-color:rgb(78.823529%,79.607843%,80.784314%);stop-opacity:1;"/>
<stop offset="1" style="stop-color:rgb(48.235294%,47.843137%,50.588235%);stop-opacity:1;"/>
</linearGradient>
</defs>
<g id="surface1">
<path style=" stroke:none;fill-rule:nonzero;fill:url(#linear0);" d="M 18.082031 18.574219 C 11.625 18.574219 6.136719 15.25 6.136719 11.273438 C 6.136719 7.292969 10.980469 3.984375 17.4375 3.984375 C 25.59375 3.984375 29.375 7.207031 29.375 11.183594 C 29.375 15.164062 25.207031 18.574219 18.082031 18.574219 M 15.5 0.00390625 C 7.105469 0.00390625 0 4.644531 0 10.613281 C 0 16.253906 7.0625 20.933594 15.457031 20.933594 C 23.851562 20.933594 31 16.585938 31 10.613281 C 31 4.644531 23.894531 0.00390625 15.5 0.00390625 "/>
<path style=" stroke:none;fill-rule:nonzero;fill:rgb(12.941176%,39.607843%,71.372549%);fill-opacity:1;" d="M 12.828125 6.449219 L 12.828125 23.996094 L 17.992188 23.996094 L 17.992188 17.171875 C 19.285156 17.171875 20.054688 16.882812 20.898438 18.472656 C 22.1875 20.746094 23.800781 23.996094 23.800781 23.996094 L 29.933594 23.996094 C 29.933594 23.996094 26.0625 17.496094 25.738281 17.171875 C 25.144531 16.523438 24.449219 16.523438 23.480469 16.195312 C 25.417969 15.871094 27.222656 15.046875 27.847656 13.28125 C 28.398438 11.65625 28.332031 9.589844 27.15625 8.203125 C 26.136719 7.105469 25.09375 6.449219 22.511719 6.449219 Z M 17.992188 10.101562 L 21.382812 10.101562 C 22.183594 10.101562 22.835938 10.914062 22.835938 11.726562 C 22.835938 12.539062 22.1875 13.351562 21.382812 13.351562 L 17.992188 13.351562 Z M 17.992188 10.101562 "/>
</g>
</svg>
