<?xml version="1.0" encoding="UTF-8"?>
<svg xmlns="http://www.w3.org/2000/svg" xmlns:xlink="http://www.w3.org/1999/xlink" width="24px" height="24px" viewBox="0 0 24 24" version="1.1">
<g id="surface1">
<path style=" stroke:none;fill-rule:nonzero;fill:rgb(46%,67%,86%);fill-opacity:1;" d="M 12.179688 0.00390625 C 8.933594 -0.046875 5.808594 1.222656 3.515625 3.515625 C -1.167969 8.203125 -1.167969 15.800781 3.515625 20.488281 C 8.203125 25.171875 15.800781 25.171875 20.484375 20.488281 C 25.171875 15.800781 25.171875 8.203125 20.484375 3.515625 C 18.28125 1.308594 15.300781 0.0507812 12.179688 0.00390625 Z M 7.769531 5.996094 C 8.332031 6.121094 8.820312 6.210938 9.433594 6.210938 C 10.355469 6.210938 11.296875 5.996094 12.21875 5.996094 C 14.007812 5.996094 15.667969 6.808594 15.667969 8.796875 C 15.667969 10.335938 14.746094 11.3125 13.320312 11.726562 L 16.105469 15.832031 L 17.40625 15.832031 L 17.40625 16.84375 L 15.421875 16.84375 L 12.128906 11.90625 L 10.371094 11.90625 L 10.371094 15.832031 L 12.089844 15.832031 L 12.089844 16.84375 L 7.769531 16.84375 L 7.769531 15.832031 L 9.253906 15.832031 L 9.253906 7.132812 L 7.769531 6.949219 L 7.769531 5.992188 Z M 12.234375 7.007812 C 11.640625 7.007812 11.023438 7.058594 10.371094 7.132812 L 10.371094 10.933594 L 11.3125 10.953125 C 13.609375 10.984375 14.496094 10.101562 14.496094 8.925781 C 14.496094 7.550781 13.5 7.007812 12.234375 7.007812 Z M 12.234375 7.007812 "/>
</g>
</svg>
