<?xml version="1.0" encoding="UTF-8"?>
<svg xmlns="http://www.w3.org/2000/svg" xmlns:xlink="http://www.w3.org/1999/xlink" width="24px" height="24px" viewBox="0 0 24 24" version="1.1">
<g id="surface1">
<path style=" stroke:none;fill-rule:nonzero;fill:rgb(0%,0%,0%);fill-opacity:1;" d="M 23.148438 2.589844 L 18.210938 0.214844 C 17.636719 -0.0625 16.953125 0.0546875 16.503906 0.503906 L 7.046875 9.132812 L 2.925781 6.007812 C 2.542969 5.714844 2.003906 5.738281 1.648438 6.0625 L 0.328125 7.265625 C -0.109375 7.660156 -0.109375 8.347656 0.324219 8.742188 L 3.898438 12.003906 L 0.324219 15.265625 C -0.109375 15.660156 -0.109375 16.347656 0.328125 16.742188 L 1.648438 17.945312 C 2.007812 18.269531 2.542969 18.292969 2.925781 18 L 7.046875 14.871094 L 16.507812 23.503906 C 16.953125 23.953125 17.636719 24.070312 18.210938 23.792969 L 23.152344 21.414062 C 23.671875 21.164062 24 20.640625 24 20.0625 L 24 3.941406 C 24 3.367188 23.667969 2.839844 23.148438 2.589844 Z M 18.003906 17.453125 L 10.824219 12.003906 L 18.003906 6.554688 Z M 18.003906 17.453125 "/>
</g>
</svg>
